<?xml version="1.0" encoding="utf-8"?>
<!-- Svg Vector Icons : http://www.onlinewebfonts.com/icon -->
<!DOCTYPE svg PUBLIC "-//W3C//DTD SVG 1.1//EN" "http://www.w3.org/Graphics/SVG/1.1/DTD/svg11.dtd">
<svg version="1.1" xmlns="http://www.w3.org/2000/svg" xmlns:xlink="http://www.w3.org/1999/xlink" x="0px" y="0px" viewBox="0 0 1000 1000" enable-background="new 0 0 1000 1000" xml:space="preserve">
<metadata> Svg Vector Icons : http://www.onlinewebfonts.com/icon </metadata>
<g><path d="M489.1,989.9c-71.2,0-145.1,0-188.9-2.7c-73.9-2.7-131.4-16.3-194.4-68C56.5,878.3,23.7,807.5,15.5,715C10,655.1,10,598,10,532.7v-2.7c0,0,0,0,0-2.7v-78.9l0,0c0-57.2,0-111.6,5.5-163.3c10.9-92.5,41.1-160.6,90.3-204.1c63-51.7,120.4-65.3,194.4-68c43.8-2.7,106.8-2.7,186.1-2.7h54.7c68.4,0,120.4,2.7,158.8,2.7c73.9,2.7,131.4,16.3,194.4,68c49.3,40.8,82.1,111.6,90.3,204.1c5.5,57.2,5.5,117,5.5,179.6v38.1v27.2c0,62.6,0,122.5-5.5,179.6c-11,92.5-41.1,160.6-90.3,204.1c-63,51.7-120.4,65.3-194.4,68C669.7,987.2,579.4,989.9,489.1,989.9z M64.7,529.9L64.7,529.9v5.4c0,62.6,0,119.7,5.5,174.2c5.5,54.4,21.9,127.9,71.2,166c52,43.5,98.5,54.4,164.2,57.2c93.1,5.4,336.7,2.7,394.2,0c65.7-2.7,112.2-13.6,164.2-57.2c49.3-40.8,65.7-114.3,71.2-166c5.5-54.4,5.5-111.6,5.5-174.2v-38.1v-27.2c0-62.6,0-119.7-5.5-174.2c-5.5-54.4-21.9-127.9-71.2-166c-52-43.5-98.5-54.4-164.2-57.2c-35.6-2.7-90.3-2.7-156-2.7h-54.7c-79.4,0-142.3,0-183.4,2.7c-65.7,2.7-112.2,13.6-164.2,57.2c-49.3,40.8-65.7,114.3-71.2,166c-5.5,49-5.5,100.7-5.5,157.8l0,0V529.9z"/><path d="M166,391.1l202.6-51.7c8.2-2.7,13.7,2.7,16.4,10.9l2.7,5.4c2.7,8.2-2.7,13.6-10.9,16.3l-202.6,51.7c-8.2,2.7-13.7-2.7-16.4-10.9l-2.7-5.4C155.1,399.3,157.8,391.1,166,391.1z"/><path d="M171.5,295.9L376.8,334c8.2,0,13.7,8.2,10.9,16.3v5.4c0,8.2-8.2,13.6-16.4,10.9L166,328.5c-8.2,0-13.7-8.2-11-16.3v-5.4C157.8,301.3,163.3,295.9,171.5,295.9z"/><path d="M628.7,336.7L834,295.9c8.2-2.7,13.7,2.7,16.4,10.9l2.7,5.4c2.7,8.2-2.7,13.6-11,16.3l-205.3,40.8c-8.2,2.7-13.7-2.7-16.4-10.9l-2.7-5.4C615,344.9,620.4,339.4,628.7,336.7z"/><path d="M839.4,391.1l-202.6-51.7c-8.2-2.7-13.7,2.7-16.4,10.9l-2.7,5.4c-2.7,8.2,2.7,16.3,11,16.3l202.6,51.7c8.2,2.7,13.7-2.7,16.4-10.9l2.7-5.4C850.4,399.3,847.7,391.1,839.4,391.1z"/><path d="M278.3,864.7h35.6v54.4h-35.6V864.7z"/><path d="M278.3,783h35.6v54.4h-35.6V783z"/><path d="M278.3,385.7h35.6v370.1h-35.6V385.7L278.3,385.7z"/><path d="M699.8,864.7h35.6v54.4h-35.6V864.7z"/><path d="M699.8,783h35.6v54.4h-35.6V783z"/><path d="M699.8,385.7h35.6v370.1h-35.6V385.7L699.8,385.7z"/><path d="M639.6,731.3c-5.5,0-8.2-2.7-13.7-5.4c-128.7-106.1-243.6-10.9-249.1-8.2c-8.2,8.2-21.9,5.4-30.1-2.7c-8.2-8.2-5.5-21.8,2.7-29.9c2.7,0,147.8-122.5,303.9,5.4c8.2,8.2,11,19,2.7,29.9C653.3,728.6,647.8,731.3,639.6,731.3z"/></g>
</svg>